/vscmnt/brussel_pixiu_data/_data_brussel/112/vsc11236/PredSimResults/SUBJ11opt3D/expIG/worker_06.mot
version=1
nRows=4
nColumns=50
inDegrees=yes
endheader
                time	         pelvis_tilt	         pelvis_list	     pelvis_rotation	           pelvis_tx	           pelvis_ty	           pelvis_tz	       hip_flexion_r	     hip_adduction_r	      hip_rotation_r	        knee_angle_r	       ankle_angle_r	         mtp_angle_r	       hip_flexion_l	     hip_adduction_l	      hip_rotation_l	        knee_angle_l	       ankle_angle_l	         mtp_angle_l	    lumbar_extension	      lumbar_bending	     lumbar_rotation	 ercspn_r/activation	 intobl_r/activation	 extobl_r/activation	    abd_r/activation	    add_r/activation	hamstrings_r/activation	bifemsh_r/activation	glut_max_r/activation	iliopsoas_r/activation	rect_fem_r/activation	  vasti_r/activation	gastroc_r/activation	 soleus_r/activation	tib_ant_r/activation	 ercspn_l/activation	 intobl_l/activation	 extobl_l/activation	    abd_l/activation	    add_l/activation	hamstrings_l/activation	bifemsh_l/activation	glut_max_l/activation	iliopsoas_l/activation	rect_fem_l/activation	  vasti_l/activation	gastroc_l/activation	 soleus_l/activation	tib_ant_l/activation	
          0.66945686	         -3.13244954	          0.96890588	         -5.30635676	          0.73640254	          0.94124398	          0.00608335	        -13.89018472	         -2.93310669	         -2.36006963	        -11.26158811	         12.64218319	         28.49302225	         31.29876524	         -2.08600132	         -4.45786282	         -9.25218700	          1.84800724	          0.23133928	        -14.59937257	          2.04854980	          3.21767011	          0.00999999	          0.00999999	          0.00999999	          0.04096032	          0.00999999	          0.01594449	          0.22635094	          0.02101932	          0.13530460	          0.00999999	          0.00999999	          0.15577360	          0.31148124	          0.01496100	          0.03163674	          0.25152046	          0.06469302	          0.00999999	          0.17690233	          0.04492117	          0.16392163	          0.04263797	          0.09661643	          0.04096032	          0.01398011	          0.00999999	          0.00999999	          0.40825006	
          0.68284599	         -3.24667878	          1.01781738	         -5.44343699	          0.75469504	          0.93912460	          0.00504241	        -14.53412749	         -3.17570534	         -2.64523970	        -11.82950780	         11.82838333	         30.27209444	         31.11660294	         -1.93374826	         -4.62330644	        -10.38064280	          1.27119042	          0.24275636	        -14.19483197	          1.55821584	          3.43016306	          0.02227854	          0.00999999	          0.00999999	          0.03348750	          0.03835056	          0.01837563	          0.18505541	          0.01718455	          0.11061959	          0.00999999	          0.00999999	          0.12735422	          0.29197935	          0.01223151	          0.02586493	          0.20563298	          0.05289041	          0.00999999	          0.18751275	          0.03914706	          0.13401571	          0.10824392	          0.07898969	          0.03348750	          0.01142957	          0.01351119	          0.01324199	          0.43287455	
          0.69623513	         -3.33799688	          1.08259032	         -5.56188512	          0.77343137	          0.93728339	          0.00395323	        -15.08093688	         -3.44655832	         -2.94245218	        -12.63051065	         10.87132900	         32.10605772	         30.85303574	         -1.80814750	         -4.73408366	        -11.69937561	          0.77583252	          0.21300447	        -13.75170975	          1.04177249	          3.63691645	          0.01821403	          0.00999999	          0.00999999	          0.02737803	          0.03135387	          0.01502318	          0.15129384	          0.01404939	          0.11840055	          0.00999999	          0.00999999	          0.10411967	          0.26603776	          0.00999999	          0.02713956	          0.16811724	          0.04324107	          0.07227120	          0.20606393	          0.04035252	          0.10956585	          0.12140283	          0.06457879	          0.02737803	          0.00999999	          0.01104620	          0.01082611	          0.50172177	
          0.70962427	         -3.40913358	          1.13339877	         -5.64949829	          0.79227973	          0.93594174	          0.00278765	        -15.41559123	         -3.71502869	         -3.25067758	        -13.81864465	          9.73926974	         34.00039053	         30.62105082	         -1.70849521	         -4.91529796	        -13.07519224	          0.10305517	          0.18489243	        -13.31180815	          0.53866991	          3.82929707	          0.05321973	          0.00999999	          0.00999999	          0.02238318	          0.03326036	          0.01575602	          0.12369174	          0.01161828	          0.09679952	          0.00999999	          0.00999999	          0.08512405	          0.23897899	          0.00999999	          0.03071351	          0.13744588	          0.03535215	          0.10821638	          0.25894081	          0.03772759	          0.08957662	          0.12453657	          0.05279702	          0.02238318	          0.02804943	          0.00999999	          0.00999999	          0.55678538	
